<svg width="312" height="351" viewBox="0 0 312 351" fill="none" xmlns="http://www.w3.org/2000/svg">
<path d="M147 13C152.333 9 159.667 9 165 13L301 115C304.777 117.833 307 122.279 307 127V331C307 339.284 300.284 346 292 346H215C206.716 346 200 339.284 200 331V234.5C200 220.693 188.807 209.5 175 209.5H137C123.193 209.5 112 220.693 112 234.5V331C112 339.284 105.284 346 97 346H20C11.7157 346 5 339.284 5 331V127C5 122.279 7.22291 117.833 11 115L147 13Z" fill="url(#paint0_linear_2120_2)" stroke="white" stroke-width="10"/>
<path d="M13.4445 261.75C9.63523 261.75 6.44441 260.466 3.87205 257.898C1.29968 255.33 0.00900932 252.156 4.63601e-05 248.375C-0.0089166 244.594 1.28175 241.42 3.87205 238.852C6.46234 236.284 9.65315 235 13.4445 235H80.6667C84.4759 235 87.6712 236.284 90.2525 238.852C92.8339 241.42 94.1201 244.594 94.1111 248.375C94.1021 252.156 92.8115 255.334 90.2391 257.911C87.6667 260.488 84.4759 261.768 80.6667 261.75H13.4445ZM13.4445 208.25C9.63523 208.25 6.44441 206.966 3.87205 204.398C1.29968 201.83 0.00900932 198.656 4.63601e-05 194.875C-0.0089166 191.094 1.28175 187.92 3.87205 185.352C6.46234 182.784 9.65315 181.5 13.4445 181.5H134.444C138.254 181.5 141.449 182.784 144.03 185.352C146.612 187.92 147.898 191.094 147.889 194.875C147.88 198.656 146.589 201.834 144.017 204.411C141.444 206.988 138.254 208.268 134.444 208.25H13.4445ZM13.4445 154.75C9.63523 154.75 6.44441 153.466 3.87205 150.898C1.29968 148.33 0.00900932 145.156 4.63601e-05 141.375C-0.0089166 137.594 1.28175 134.42 3.87205 131.852C6.46234 129.284 9.65315 128 13.4445 128H134.444C138.254 128 141.449 129.284 144.03 131.852C146.612 134.42 147.898 137.594 147.889 141.375C147.88 145.156 146.589 148.334 144.017 150.911C141.444 153.488 138.254 154.768 134.444 154.75H13.4445ZM121 328.625V306.556C121 304.773 121.336 303.048 122.008 301.38C122.681 299.713 123.689 298.206 125.033 296.859L195.28 227.309C197.297 225.303 199.538 223.854 202.003 222.963C204.468 222.071 206.932 221.625 209.397 221.625C212.086 221.625 214.663 222.129 217.128 223.136C219.593 224.144 221.833 225.646 223.85 227.644L236.286 240.016C238.079 242.022 239.481 244.251 240.494 246.703C241.507 249.155 242.009 251.607 242 254.059C241.991 256.511 241.543 259.021 240.655 261.589C239.768 264.157 238.312 266.44 236.286 268.438L166.375 337.988C165.031 339.325 163.52 340.328 161.844 340.997C160.168 341.666 158.429 342 156.628 342H134.444C130.635 342 127.444 340.72 124.872 338.161C122.3 335.602 121.009 332.424 121 328.625ZM141.167 321.938H153.939L194.608 281.144L188.558 274.791L182.172 268.772L141.167 309.231V321.938ZM188.558 274.791L182.172 268.772L194.608 281.144L188.558 274.791Z" fill="white"/>
<path d="M276 151C276.003 149.785 275.765 148.582 275.301 147.46C274.836 146.337 274.154 145.318 273.294 144.46L259.54 130.706C258.682 129.846 257.663 129.164 256.54 128.699C255.418 128.235 254.215 127.997 253 128H214.667C212.633 128 210.683 128.808 209.246 130.246C207.808 131.683 207 133.633 207 135.667V189.333C207 191.367 207.808 193.317 209.246 194.754C210.683 196.192 212.633 197 214.667 197H268.333C270.367 197 272.317 196.192 273.754 194.754C275.192 193.317 276 191.367 276 189.333V151Z" stroke="white" stroke-width="10" stroke-linecap="round" stroke-linejoin="round"/>
<path d="M253 128V147.167C253 148.183 253.404 149.158 254.123 149.877C254.842 150.596 255.817 151 256.833 151H276" stroke="white" stroke-width="10" stroke-linecap="round" stroke-linejoin="round"/>
<defs>
<linearGradient id="paint0_linear_2120_2" x1="156" y1="0" x2="156" y2="351" gradientUnits="userSpaceOnUse">
<stop stop-color="#006FFF"/>
<stop offset="1" stop-color="#004299"/>
</linearGradient>
</defs>
</svg>
