<svg width="312" height="351" viewBox="0 0 312 351" fill="none" xmlns="http://www.w3.org/2000/svg">
<path d="M0 351V117L156 0L312 117V351H195V214.5H117V351H0Z" fill="url(#paint0_linear_2119_9)"/>
<path d="M24.4445 261.75C20.6352 261.75 17.4444 260.466 14.872 257.898C12.2997 255.33 11.009 252.156 11 248.375C10.9911 244.594 12.2818 241.42 14.872 238.852C17.4623 236.284 20.6532 235 24.4445 235H91.6667C95.4759 235 98.6712 236.284 101.253 238.852C103.834 241.42 105.12 244.594 105.111 248.375C105.102 252.156 103.811 255.334 101.239 257.911C98.6667 260.488 95.4759 261.768 91.6667 261.75H24.4445ZM24.4445 208.25C20.6352 208.25 17.4444 206.966 14.872 204.398C12.2997 201.83 11.009 198.656 11 194.875C10.9911 191.094 12.2818 187.92 14.872 185.352C17.4623 182.784 20.6532 181.5 24.4445 181.5H145.444C149.254 181.5 152.449 182.784 155.03 185.352C157.612 187.92 158.898 191.094 158.889 194.875C158.88 198.656 157.589 201.834 155.017 204.411C152.444 206.988 149.254 208.268 145.444 208.25H24.4445ZM24.4445 154.75C20.6352 154.75 17.4444 153.466 14.872 150.898C12.2997 148.33 11.009 145.156 11 141.375C10.9911 137.594 12.2818 134.42 14.872 131.852C17.4623 129.284 20.6532 128 24.4445 128H145.444C149.254 128 152.449 129.284 155.03 131.852C157.612 134.42 158.898 137.594 158.889 141.375C158.88 145.156 157.589 148.334 155.017 150.911C152.444 153.488 149.254 154.768 145.444 154.75H24.4445ZM132 328.625V306.556C132 304.773 132.336 303.048 133.008 301.38C133.681 299.713 134.689 298.206 136.033 296.859L206.28 227.309C208.297 225.303 210.538 223.854 213.003 222.963C215.468 222.071 217.932 221.625 220.397 221.625C223.086 221.625 225.663 222.129 228.128 223.136C230.593 224.144 232.833 225.646 234.85 227.644L247.286 240.016C249.079 242.022 250.481 244.251 251.494 246.703C252.507 249.155 253.009 251.607 253 254.059C252.991 256.511 252.543 259.021 251.655 261.589C250.768 264.157 249.312 266.44 247.286 268.438L177.375 337.988C176.031 339.325 174.52 340.328 172.844 340.997C171.168 341.666 169.429 342 167.628 342H145.444C141.635 342 138.444 340.72 135.872 338.161C133.3 335.602 132.009 332.424 132 328.625ZM152.167 321.938H164.939L205.608 281.144L199.558 274.791L193.172 268.772L152.167 309.231V321.938ZM199.558 274.791L193.172 268.772L205.608 281.144L199.558 274.791Z" fill="#0D99FF"/>
<defs>
<linearGradient id="paint0_linear_2119_9" x1="156" y1="0" x2="156" y2="351" gradientUnits="userSpaceOnUse">
<stop stop-color="#006FFF"/>
<stop offset="1" stop-color="#004299"/>
</linearGradient>
</defs>
</svg>
